#!OML:ASF H:\Pregnant\Project 1\Capture day 1\Session 1\femalepreg.ASF
:FULLY-SPECIFIED
:DEGREES
293
root 5.16114 15.7692 28.0731 -171.975 -87.8108 -169.233
lowerback -26.8356 0.499212 -2.39051
upperback -5.7268 0.58581 2.0249
thorax 8.42496 -0.00408456 3.79682
lowerneck -10.7951 3.22798 3.44187
upperneck 18.5313 3.91125 -1.50264
head 7.57988 1.8938 -0.692453
rclavicle 1.11816e-014 3.97569e-016
rhumerus -7.62621 27.4115 -89.8853
rradius 136.388
rwrist -22.5896
rhand -52.1797 -21.4864
rfingers 7.12502
rthumb -24.6797 -49.9149
lclavicle 1.11816e-014 3.97569e-016
lhumerus -1.51764 -18.6907 91.9397
lradius 142.111
lwrist 29.9893
lhand -51.8988 -43.2431
lfingers 7.12502
lthumb -24.4105 -14.7782
rfemur -26.3094 19.6056 18.7242
rtibia 27.6648
rfoot -15.2897 -17.0983
rtoes -3.20903
lfemur 0 0 0
ltibia 0
lfoot 0 0
ltoes 0
294
root 5.16276 15.7702 28.0744 -171.714 -87.8089 -169.458
lowerback -26.733 0.517373 -2.33493
upperback -5.88715 0.585213 1.98565
thorax 8.19476 -0.000790909 3.71481
lowerneck -11.2991 3.30765 3.48761
upperneck 18.3708 4.01426 -1.53344
head 7.62159 1.94615 -0.691842
rclavicle -1.68967e-014 -2.3059e-014
rhumerus -8.84286 28.3604 -90.2701
rradius 135.06
rwrist -27.972
rhand -47.9978 -23.4264
rfingers 7.12502
rthumb -20.6663 -52.3461
lclavicle -1.68967e-014 -2.3059e-014
lhumerus -2.49751 -20.5067 91.7211
lradius 141.472
lwrist 33.7219
lhand -51.5744 -38.9746
lfingers 7.12502
lthumb -24.0994 -10.4681
rfemur -26.3622 19.6212 18.6912
rtibia 27.6693
rfoot -15.2738 -17.1169
rtoes -3.22213
lfemur 0 0 0
ltibia 0
lfoot 0 0
ltoes 0
295
root 5.16422 15.7711 28.0756 -171.484 -87.8073 -169.657
lowerback -26.6534 0.542272 -2.26697
upperback -6.02519 0.592385 1.93982
thorax 8.00122 0.00566574 3.62205
lowerneck -11.837 3.38379 3.53014
upperneck 18.2255 4.11281 -1.57443
head 7.67426 1.99458 -0.693587
rclavicle -6.80837e-015 -1.98785e-014
rhumerus -10.0604 28.9978 -90.656
rradius 133.674
rwrist -33.2703
rhand -42.9569 -25.745
rfingers 7.12502
rthumb -15.8169 -55.1189
lclavicle -6.80837e-015 -1.98785e-014
lhumerus -3.49161 -22.2511 91.5435
lradius 140.775
lwrist 37.51
lhand -51.0015 -33.8693
lfingers 7.12502
lthumb -23.55 -5.29113
rfemur -26.4109 19.6361 18.6611
rtibia 27.6749
rfoot -15.2633 -17.1352
rtoes -3.2231
lfemur 0 0 0
ltibia 0
lfoot 0 0
ltoes 0
296
root 5.16558 15.772 28.0767 -171.217 -87.8068 -169.894
lowerback -26.5974 0.549492 -2.1945
upperback -6.13668 0.576061 1.90762
thorax 7.85129 1.77089e-005 3.53548
lowerneck -12.4092 3.47577 3.55779
upperneck 18.0944 4.23912 -1.64096
head 7.73865 2.0521 -0.697401
rclavicle 1.51076e-014 2.74323e-014
rhumerus -11.2491 29.4412 -91.0244
rradius 132.213
rwrist -38.3229
rhand -37.3389 -28.3209
rfingers 7.12502
rthumb -10.4016 -58.0436
lclavicle 1.51076e-014 2.74323e-014
lhumerus -4.50785 -23.8321 91.42
lradius 140.022
lwrist 41.2284
lhand -50.1078 -28.0832
lfingers 7.12502
lthumb -22.6926 0.602486
rfemur -26.455 19.6509 18.6317
rtibia 27.6795
rfoot -15.2534 -17.1571
rtoes -3.22254
lfemur 0 0 0
ltibia 0
lfoot 0 0
ltoes 0
297
root 5.16685 15.7727 28.0778 -170.94 -87.8094 -170.145
lowerback -26.5661 0.538708 -2.11449
upperback -6.22081 0.535511 1.88546
thorax 7.74622 -0.0179043 3.44913
lowerneck -13.0029 3.58501 3.59545
upperneck 17.9705 4.39335 -1.7476
head 7.81118 2.11901 -0.712215
rclavicle -1.64494e-014 -1.39149e-014
rhumerus -12.3941 29.7235 -91.3675
rradius 130.687
rwrist -43.1556
rhand -31.3558 -31.1498
rfingers 7.12502
rthumb -4.62673 -61.0793
lclavicle -1.64494e-014 -1.39149e-014
lhumerus -5.548 -25.2271 91.3484
lradius 139.21
lwrist 44.7922
lhand -48.8187 -21.8058
lfingers 7.12502
lthumb -21.4549 7.02609
rfemur -26.4929 19.6649 18.6033
rtibia 27.6824
rfoot -15.2476 -17.1789
rtoes -3.20793
lfemur 0 0 0
ltibia 0
lfoot 0 0
ltoes 0
298
root 5.16794 15.7734 28.0787 -170.708 -87.8109 -170.357
lowerback -26.5586 0.535473 -2.02994
upperback -6.27869 0.506442 1.85551
thorax 7.68164 -0.0306963 3.35626
lowerneck -13.6058 3.68727 3.65105
upperneck 17.8504 4.53492 -1.86677
head 7.88701 2.17908 -0.734807
rclavicle 8.89561e-015 -1.31198e-014
rhumerus -13.5052 29.8832 -91.6782
rradius 129.09
rwrist -47.7093
rhand -25.5596 -34.0781
rfingers 7.12502
rthumb 0.971075 -64.0557
lclavicle 8.89561e-015 -1.31198e-014
lhumerus -6.60156 -26.5024 91.325
lradius 138.328
lwrist 48.1457
lhand -47.1012 -15.3532
lfingers 7.12502
lthumb -19.8046 13.6579
rfemur -26.5213 19.6832 18.5792
rtibia 27.682
rfoot -15.2422 -17.204
rtoes -3.18491
lfemur 0 0 0
ltibia 0
lfoot 0 0
ltoes 0
299
root 5.16887 15.774 28.0796 -170.535 -87.813 -170.514
lowerback -26.5749 0.535543 -1.94133
upperback -6.31418 0.482591 1.82253
thorax 7.65365 -0.0413186 3.26029
lowerneck -14.1962 3.78505 3.72551
upperneck 17.7261 4.66869 -2.00564
head 7.96005 2.23406 -0.767698
rclavicle -1.59525e-014 7.95139e-015
rhumerus -14.5939 30.0426 -91.9751
rradius 127.433
rwrist -51.9763
rhand -20.4739 -36.9307
rfingers 7.12502
rthumb 5.88231 -66.8291
lclavicle -1.59525e-014 7.95139e-015
lhumerus -7.67194 -27.633 91.3531
lradius 137.391
lwrist 51.2811
lhand -44.9606 -8.93659
lfingers 7.12502
lthumb -17.7457 20.2737
rfemur -26.5425 19.6969 18.5605
rtibia 27.6782
rfoot -15.2353 -17.2267
rtoes -3.17679
lfemur 0 0 0
ltibia 0
lfoot 0 0
ltoes 0
300
root 5.16961 15.7744 28.0804 -170.493 -87.8119 -170.545
lowerback -26.6096 0.556693 -1.84408
upperback -6.33058 0.486379 1.77736
thorax 7.65444 -0.0386926 3.15536
lowerneck -14.7667 3.86123 3.79619
upperneck 17.6016 4.77 -2.13364
head 8.02816 2.27374 -0.800149
rclavicle 4.12478e-015 -4.77083e-015
rhumerus -15.6811 30.2646 -92.274
rradius 125.746
rwrist -55.9315
rhand -16.5962 -39.5082
rfingers 7.12502
rthumb 9.62494 -69.2683
lclavicle 4.12478e-015 -4.77083e-015
lhumerus -8.76165 -28.6965 91.4054
lradius 136.398
lwrist 54.2076
lhand -42.5168 -2.88834
lfingers 7.12502
lthumb -15.393 26.5186
rfemur -26.5528 19.7088 18.5502
rtibia 27.6692
rfoot -15.2296 -17.2418
rtoes -3.16429
lfemur 0 0 0
ltibia 0
lfoot 0 0
ltoes 0
301
root 5.17016 15.7745 28.0811 -170.562 -87.8041 -170.471
lowerback -26.6619 0.602674 -1.73995
upperback -6.32899 0.523322 1.71667
thorax 7.68225 -0.020096 3.04054
lowerneck -15.3164 3.91139 3.86553
upperneck 17.4833 4.83026 -2.24034
head 8.09273 2.29534 -0.830322
rclavicle -3.32964e-015 3.57812e-015
rhumerus -16.7732 30.6137 -92.596
rradius 124.077
rwrist -59.5018
rhand -14.2081 -41.6715
rfingers 7.12502
rthumb 11.9284 -71.3117
lclavicle -3.32964e-015 3.57812e-015
lhumerus -9.86352 -29.7321 91.4812
lradius 135.361
lwrist 56.9313
lhand -39.9799 2.49548
lfingers 7.12502
lthumb -12.9484 32.0737
rfemur -26.554 19.7174 18.5481
rtibia 27.6567
rfoot -15.2211 -17.2485
rtoes -3.17106
lfemur 0 0 0
ltibia 0
lfoot 0 0
ltoes 0
302
root 5.17055 15.7745 28.082 -170.697 -87.7952 -170.335
lowerback -26.7338 0.663132 -1.63084
upperback -6.30974 0.580468 1.64033
thorax 7.73884 0.00826089 2.91273
lowerneck -15.8437 3.94481 3.95365
upperneck 17.3744 4.85878 -2.33201
head 8.15542 2.30414 -0.862695
rclavicle -1.35174e-014 -1.39149e-014
rhumerus -17.8646 31.1256 -92.9772
rradius 122.477
rwrist -62.5637
rhand -13.3586 -43.2806
rfingers 7.12502
rthumb 12.7475 -72.8714
lclavicle -1.35174e-014 -1.39149e-014
lhumerus -10.9745 -30.7589 91.574
lradius 134.297
lwrist 59.4626
lhand -37.6054 7.10707
lfingers 7.12502
lthumb -10.6586 36.8167
rfemur -26.5504 19.72 18.5506
rtibia 27.6424
rfoot -15.2146 -17.2476
rtoes -3.18524
lfemur 0 0 0
ltibia 0
lfoot 0 0
ltoes 0
303
root 5.17084 15.7742 28.0828 -170.865 -87.7835 -170.171
lowerback -26.8165 0.729701 -1.51231
upperback -6.27451 0.644873 1.55593
thorax 7.81886 0.04036 2.77344
lowerneck -16.356 3.96842 4.03698
upperneck 17.2823 4.86942 -2.40234
head 8.21959 2.30579 -0.889634
rclavicle 2.18663e-015 3.57812e-015
rhumerus -18.9515 31.813 -93.4347
rradius 120.991
rwrist -64.9224
rhand -13.7437 -44.3215
rfingers 7.12502
rthumb 12.3762 -73.9352
lclavicle 2.18663e-015 3.57812e-015
lhumerus -12.0905 -31.7607 91.6811
lradius 133.233
lwrist 61.8408
lhand -35.6493 10.8601
lfingers 7.12502
lthumb -8.77137 40.6578
rfemur -26.5417 19.7192 18.5559
rtibia 27.6279
rfoot -15.2115 -17.2377
rtoes -3.19509
lfemur 0 0 0
ltibia 0
lfoot 0 0
ltoes 0
304
root 5.17114 15.7738 28.0837 -171.047 -87.7692 -169.996
lowerback -26.9027 0.794655 -1.38478
upperback -6.22745 0.706403 1.46307
thorax 7.91473 0.0714908 2.619
lowerneck -16.8598 3.99393 4.12926
upperneck 17.2176 4.87462 -2.45023
head 8.29077 2.30721 -0.911343
rclavicle -9.24349e-015 -7.95139e-015
rhumerus -20.0366 32.6477 -93.9976
rradius 119.64
rwrist -66.355
rhand -14.8768 -44.8725
rfingers 7.12502
rthumb 11.2836 -74.549
lclavicle -9.24349e-015 -7.95139e-015
lhumerus -13.2163 -32.7265 91.8007
lradius 132.19
lwrist 64.0545
lhand -34.2627 13.7578
lfingers 7.12502
lthumb -7.43316 43.6072
rfemur -26.5289 19.7207 18.5619
rtibia 27.6134
rfoot -15.2119 -17.2226
rtoes -3.1853
lfemur 0 0 0
ltibia 0
lfoot 0 0
ltoes 0
305
root 5.17145 15.7734 28.0846 -171.178 -87.7528 -169.877
lowerback -26.9884 0.863694 -1.25504
upperback -6.16912 0.774405 1.36094
thorax 8.02335 0.106172 2.45543
lowerneck -17.3553 4.01544 4.2179
upperneck 17.1741 4.87011 -2.47878
head 8.36651 2.30541 -0.927375
rclavicle 1.36664e-014 -3.97569e-015
rhumerus -21.1115 33.5238 -94.6496
rradius 118.442
rwrist -66.7169
rhand -16.2037 -45.0906
rfingers 7.12502
rthumb 10.0036 -74.8328
lclavicle 1.36664e-014 -3.97569e-015
lhumerus -14.3425 -33.6476 91.9479
lradius 131.183
lwrist 66.0897
lhand -33.3963 15.947
lfingers 7.12502
lthumb -6.59678 45.8243
rfemur -26.5116 19.7203 18.5671
rtibia 27.6001
rfoot -15.215 -17.2014
rtoes -3.1808
lfemur 0 0 0
ltibia 0
lfoot 0 0
ltoes 0
